PathFileType	4	(X/Y/Z)	71_2_81_p0_0-184_filt_butterworth.trc
DataRate	CameraRate	NumFrames	NumMarkers	Units	OrigDataRate	OrigDataStartFrame	OrigNumFrames
43.0	43.0	6	27	m	43.0	92	184
Frame#	Time	RHip			RKnee			RAnkle			RBigToe			RSmallToe			RHeel			LHip			LKnee			LAnkle			LBigToe			LSmallToe			LHeel			Neck			Head			Nose			RShoulder			RElbow			RWrist			RThumb			RIndex			RPinky			LShoulder			LElbow			LWrist			LThumb			LIndex			LPinky			
		X1	Y1	Z1	X2	Y2	Z2	X3	Y3	Z3	X4	Y4	Z4	X5	Y5	Z5	X6	Y6	Z6	X7	Y7	Z7	X8	Y8	Z8	X9	Y9	Z9	X10	Y10	Z10	X11	Y11	Z11	X12	Y12	Z12	X13	Y13	Z13	X14	Y14	Z14	X15	Y15	Z15	X16	Y16	Z16	X17	Y17	Z17	X18	Y18	Z18	X19	Y19	Z19	X20	Y20	Z20	X21	Y21	Z21	X22	Y22	Z22	X23	Y23	Z23	X24	Y24	Z24	X25	Y25	Z25	X26	Y26	Z26	X27	Y27	Z27	
92	2.13953488372093	0.35759622669782964	0.36730812296907817	-0.170285940078455	0.37297914062409776	0.4750320366060771	0.23294383639747962	0.3989692402754853	0.6212598865567573	0.602006423116799	0.4056602172797895	0.4649775263188282	0.6487922577763129	0.4553079047935672	0.4788520446985244	0.6398711895705702	0.390745140385696	0.7341494134070348	0.6600866161535512	0.1880784791819495	0.39564992553751277	-0.16496768724153615	0.19197050471468022	0.5396760505608663	0.246891059210754	0.20865477954751682	0.6720450941286943	0.6186685639892419	0.2315368572167072	0.44435619863868203	0.6317838162633327	0.18862756748136622	0.49693326136287025	0.6279000521922212	0.23097601272973498	0.7520960351823929	0.6650782155158059	0.25126868420715676	0.1553825136791701	-0.6217040089773621	0.23390252055674463	-0.007960536095112583	-0.8197464070036024	0.2399993272579597	-0.004290102416473559	-0.6880516753225404	0.40333367054490804	0.1935579030255533	-0.5552644397597412	0.48537587765644924	0.442312187314036	-0.40648275275909107	0.4199107290882347	0.24603107991740214	-0.27395794745034224	0.36538708085436983	0.09226048864185289	-0.21736337123344504	0.3827662484711906	0.06586751185854942	-0.2004196519237726	0.40835637538192976	0.1462650418532642	-0.17687410917576843	0.11800835649540703	0.22899646167315002	-0.5549109120057245	0.06620284024683024	0.3688576896605797	-0.37112259654319024	0.11701409973246302	0.10012754967276469	-0.32642775350380016	0.15443881084709685	-0.03014783131218589	-0.3407169101151441	0.14507721864094733	-0.0667043468834351	-0.318201824309563	0.13914722490041115	0.004714065642291845	-0.2751544895373381
93	2.1627906976744184	0.3542917127875272	0.367170015777671	-0.17215023035030388	0.3730240773632043	0.4751289908401035	0.23314082811966952	0.39991069442475013	0.6243077048473791	0.6035603776679708	0.40453868381532165	0.4669294973064586	0.6501285939578543	0.45192101739427604	0.4778834325815534	0.6410477352998987	0.39801471227943475	0.7438937153443675	0.6644242489239914	0.180878766465808	0.41397223242898307	-0.16770932091071286	0.19183904297581214	0.5400203796599835	0.24650582806624732	0.21059267381843177	0.6723813982124608	0.6189519185497303	0.2305955785078846	0.4431642155238134	0.6314571814393652	0.18704534991522304	0.49677035192657953	0.6278384694278718	0.23417167144339954	0.7547164547213806	0.6637834595638422	0.2471845388907264	0.1670747220123937	-0.619184879141024	0.23330875427377115	-0.010594820873336104	-0.8170727604540499	0.2357785721002393	-0.003932775959939949	-0.6845107970224247	0.394046357733447	0.18360627921101041	-0.5510840785520386	0.4810247374389951	0.45904285353536295	-0.41244078370545645	0.42786837116675086	0.2831250435310403	-0.2666682180737517	0.3733899650000856	0.12410780862548655	-0.19492414145964004	0.394751763081815	0.1122539827406941	-0.18111434353976663	0.4223869535061725	0.20981527567745734	-0.15610131661404714	0.11447431312463477	0.22818057294582164	-0.5524481656397771	0.06923477509640492	0.34063094114933146	-0.3542699291046858	0.11825576467767963	0.08263016791981363	-0.33169109823518605	0.14888994883389667	-0.06667048858568142	-0.3537466605898659	0.14215450793278947	-0.08513303991756989	-0.33851006539497397	0.14103039116313393	-0.046096620773215476	-0.29831533569509455
94	2.186046511627907	0.35270458542779143	0.36711309884953014	-0.17419262677843972	0.37298686883640025	0.4750350594592443	0.2333307083974124	0.4016271419987109	0.625911375692575	0.6052325352973223	0.4044266504778874	0.4621218227751938	0.6501447579980076	0.44998899598358166	0.4773768810451752	0.6433132726563962	0.4048559672350449	0.747890422782149	0.6680573057184882	0.17685585481786817	0.4243457384697166	-0.16926856062704163	0.1914081512508643	0.5401151185134385	0.24519165316648706	0.21098390084195978	0.6723259535029942	0.6190202135171141	0.22884005653426337	0.44348346978071346	0.6315670769562972	0.1864305815756131	0.49728432597390027	0.6289540860018829	0.23224072860226747	0.7539937415721681	0.6645004425870438	0.24487070614435907	0.17441422053781463	-0.6182671822772484	0.23318323328404816	-0.01073090475657197	-0.8168895566868777	0.2313586954332731	-0.004331864232117505	-0.6821112984842059	0.38730627490587466	0.17720079238292458	-0.5492614347764053	0.4766494927656551	0.459557593616626	-0.4195640229463724	0.43333058853474365	0.3038190667659886	-0.2645363056070044	0.3785221430977344	0.15477286674067278	-0.18593689748447537	0.4058239286052694	0.14800006032602173	-0.17037750106686764	0.4278831516657653	0.24744976234580188	-0.1440590220216666	0.111282054530345	0.2251211604681469	-0.551157083356556	0.07007697795499104	0.30921294852705083	-0.3469050243118828	0.12031416054784996	0.0664095903210475	-0.33816902393534376	0.14633180725792538	-0.09141910715624321	-0.36254969064979486	0.14185655251271623	-0.09727088964436777	-0.35180559861569627	0.14136159480357696	-0.07517590817036407	-0.3141590893238928
95	2.2093023255813957	0.3522478855233004	0.36516609683872436	-0.17498670780176634	0.37296393486737234	0.47513419563561077	0.23197668816151942	0.40365328978263443	0.6267283003285394	0.6066794323556082	0.4040701117792837	0.4647693959763071	0.6514290891303456	0.450483304995613	0.4787139570802219	0.645512936900158	0.4055300317756094	0.7459120027693452	0.6678511467699404	0.17599855544878615	0.42731688951735086	-0.1691277582050613	0.1910486497218853	0.5401565576502682	0.24425647545485948	0.20913738789518746	0.6719600689752845	0.6191033216402947	0.2275383599760301	0.44862204296826713	0.6334580414059635	0.18514733011577036	0.501521656577864	0.6321741178853885	0.2248373527303881	0.7481482224243726	0.6666888181452696	0.24454139565277272	0.17528746960777525	-0.6193865822088938	0.23218041963515124	-0.010454660336035398	-0.8172392451603677	0.22832611333571273	-0.004833668324644713	-0.681668577080821	0.3854153863679972	0.17383424708910386	-0.5491543790610801	0.47620544761991823	0.45197458058503387	-0.4269078798307437	0.43445218425538157	0.3062353876361791	-0.2665293461460938	0.3805656356819887	0.16027008709069987	-0.18608858199512235	0.4111529578363839	0.15464185274570183	-0.16776211914236755	0.42823414219086003	0.24939521313289248	-0.1447130698975852	0.10859268307102996	0.2217579917406913	-0.5534143787074348	0.068938407772051	0.29097402316908516	-0.3492369613911411	0.12141784565388235	0.05731352233195354	-0.3441532127841989	0.1463799910492959	-0.09734885692477283	-0.3670087933602637	0.14237505985896834	-0.10354710703816858	-0.35768079026751354	0.141814140173412	-0.08475460559504719	-0.31936686711919493
96	2.232558139534884	0.3527556349352245	0.36526649177074033	-0.1756822755010209	0.37279445874386763	0.47520476287908314	0.23078783747254036	0.4053307918078102	0.6323394547528367	0.6086485315484795	0.4009974204612375	0.473834682226392	0.6540733971078985	0.4519742226831349	0.48345053662244813	0.6464168377613928	0.4000888046256434	0.7479748352523685	0.6694583485348891	0.17596669829914843	0.4279830864435872	-0.16881772794126698	0.19109398536215988	0.540238331358218	0.24532167917268957	0.20540690191123526	0.6716453160577345	0.6191406187878731	0.22704082601280323	0.4564292573548832	0.6367459030065852	0.18275872279272626	0.5081156116602256	0.6363448942629084	0.21610394124424515	0.7421326303982503	0.6688832603551327	0.24503938175611556	0.17356783254680977	-0.6207256143704057	0.23028290134374363	-0.010781311465861757	-0.8172854101768245	0.2272340785320539	-0.005079596532737895	-0.681940793159714	0.38682199022441843	0.17404058375899886	-0.5495009366087555	0.47929239922388217	0.44384224398201905	-0.4298836535116205	0.4321374425350613	0.2975190789775239	-0.27005464818496605	0.38038295113538684	0.14100637466674382	-0.18772150571108334	0.40680034551348976	0.13671243569732822	-0.1725311525185263	0.4280932498815035	0.23743659552510143	-0.15316167202863423	0.10617257263372237	0.2190754422969478	-0.5578001753486004	0.06751122191816478	0.29401551946629156	-0.35262626877043673	0.12115811220050247	0.05715777447839909	-0.3469873035850804	0.14620494814712362	-0.0910011447173404	-0.3690711838373882	0.1422027542385815	-0.10386371299858034	-0.3595083269060735	0.14323547000565168	-0.08478103078708323	-0.3204786872505745
97	2.255813953488372	0.3552400181556127	0.3737716000927763	-0.17663352120221348	0.37237001675200143	0.4746217632926939	0.23083018688849144	0.40426564644674073	0.6364736135250373	0.60911641242001	0.3956112315428928	0.47659049228544337	0.6556264961851693	0.45357673971768736	0.48978094361825864	0.6463779695657744	0.3914845642551477	0.7545035029523335	0.674742872249699	0.1758686418538466	0.4283683696378804	-0.16885960079805235	0.19138846353437533	0.5403053517647267	0.2476112202167535	0.2019408049752429	0.6713647615550746	0.6191051286358618	0.2267613847679502	0.4610673702314144	0.6386039293951661	0.18121315178454614	0.5119864912066141	0.6392426942330984	0.2104570514671481	0.7404006371226306	0.6701410538022408	0.2463083596665706	0.16979789593481392	-0.6208954555782678	0.22887835806519471	-0.011144336318451353	-0.8172427840058678	0.22699521463737346	-0.00480424315020535	-0.6821592997886735	0.38893983424154654	0.1784056107608839	-0.5501320218249262	0.48250101024882974	0.437228848577683	-0.42563306081399715	0.4255738353283838	0.2761785566983396	-0.2732333089003921	0.3780634492384838	0.11265275961701907	-0.1889209612113717	0.3952206167048413	0.10498453977506988	-0.1797403901013626	0.4256709098540682	0.22549576712849714	-0.16221224005391288	0.10620876281335104	0.21635808401953988	-0.5613848176288453	0.06700195619598952	0.31200519148996325	-0.3568117783028609	0.12072779485625965	0.06470616620641464	-0.34587721524615134	0.14655473551095619	-0.07728640645777746	-0.36799396294781556	0.14202374780963653	-0.09610023708432555	-0.35727258264266293	0.14603203154238792	-0.06869237433628061	-0.3176630436702177
